<svg width="1081" height="1080" viewBox="0 0 1081 1080" fill="none" xmlns="http://www.w3.org/2000/svg">
<rect width="1081" height="1080" fill="#1E1E1E"/>
<ellipse cx="540.5" cy="540" rx="540.5" ry="540" fill="white"/>
<path d="M618.35 666.115C673.233 666.115 715.276 679.458 744.48 706.144C773.684 732.83 788.286 770.594 788.286 819.435C788.286 852.163 781.489 880.612 767.894 904.781C754.802 928.949 734.41 947.831 706.717 961.426C679.527 974.518 645.54 981.063 604.755 981.063C553.9 981.063 508.835 970.741 469.561 950.097L493.73 897.228C528.472 913.844 565.229 922.152 604 922.152C627.665 922.152 648.057 917.872 665.177 909.312C682.296 900.753 695.136 889.424 703.696 875.325C712.759 860.723 717.29 844.359 717.29 826.232C717.29 804.078 713.514 785.699 705.961 771.098C698.912 755.992 686.324 744.411 668.198 736.355C650.071 727.795 625.147 723.515 593.426 723.515C563.215 723.515 539.298 726.285 521.675 731.823L498.261 708.41V482.583H771.67L764.117 540.739H566.991V672.157C584.614 668.129 601.734 666.115 618.35 666.115Z" fill="black"/>
<path d="M497.103 112.758L468.446 112.758L442.973 112.758L432.784 112.758L360.421 317.31L320.406 427.708L300.399 482.908L277.844 542.862L282.301 542.862L291.854 542.862L341.525 542.862L497.103 112.758Z" fill="black"/>
<path d="M302.473 542.187V482.077H771.613L763.971 540.649L302.473 542.187Z" fill="black"/>
<path d="M497.339 281.283H557.199V719.701H555.095L542.996 721.619L530.896 724.177L521.344 726.735L506.697 712.027L497.782 703.075L497.339 281.283Z" fill="black"/>
</svg>
