<svg width="1101" height="265" viewBox="0 0 1101 265" fill="none" xmlns="http://www.w3.org/2000/svg">
<rect width="1101" height="265" fill="#1E1E1E"/>
<path d="M233.396 93.1981C233.396 76.998 238.001 64.8053 247.209 56.62C256.418 48.4347 270.657 44.342 289.926 44.342C297.088 44.342 304.251 44.8536 311.413 45.8768C318.575 46.7294 324.117 47.8378 328.039 49.202C330.768 50.3957 332.388 51.76 332.899 53.2947C333.581 54.6589 333.922 56.2789 333.922 58.1547V69.9211C327.613 69.0685 321.133 68.3864 314.482 67.8748C307.832 67.1927 301.011 66.8516 294.019 66.8516C287.368 66.8516 281.826 67.4485 277.392 68.6422C272.959 69.6653 269.378 71.2001 266.649 73.2464C264.091 75.2928 262.216 77.8507 261.022 80.9202C259.999 83.9896 259.487 87.5707 259.487 91.6634C259.487 96.2676 260.084 100.104 261.278 103.174C262.471 106.073 264.432 108.631 267.161 110.848C270.06 113.065 273.726 115.111 278.16 116.987C282.764 118.692 288.392 120.738 295.042 123.126C301.863 125.684 308.002 128.242 313.459 130.799C319.086 133.357 323.861 136.597 327.783 140.52C331.876 144.271 334.946 148.961 336.992 154.588C339.209 160.045 340.317 167.037 340.317 175.563C340.317 193.98 335.372 207.196 325.481 215.211C315.591 223.055 301.266 226.977 282.508 226.977C274.323 226.977 266.393 226.38 258.72 225.186C251.046 224.163 245.078 222.884 240.814 221.35C238.597 220.497 237.063 219.388 236.21 218.024C235.357 216.66 234.931 214.955 234.931 212.908V200.119C240.9 200.971 247.465 201.824 254.627 202.677C261.96 203.529 269.719 203.956 277.904 203.956C285.066 203.956 290.949 203.359 295.554 202.165C300.328 200.801 303.995 199.01 306.553 196.794C309.281 194.406 311.157 191.507 312.18 188.097C313.203 184.686 313.715 180.849 313.715 176.586C313.715 171.811 313.118 167.889 311.924 164.82C310.901 161.75 309.025 159.192 306.297 157.146C303.568 154.929 299.902 152.883 295.298 151.007C290.864 149.131 285.237 147 278.416 144.612C271.254 142.054 264.859 139.411 259.231 136.683C253.774 133.954 249.085 130.714 245.163 126.963C241.411 123.04 238.512 118.436 236.466 113.15C234.42 107.693 233.396 101.042 233.396 93.1981ZM402.73 69.4096H362.059C357.967 69.4096 355.92 67.4485 355.92 63.5264V46.8999H470.515C472.391 46.8999 473.84 47.4115 474.863 48.4347C476.057 49.4578 476.654 50.9073 476.654 52.7831V69.4096H429.588V224.163H408.869C404.777 224.163 402.73 222.202 402.73 218.28V69.4096ZM618.462 161.494C618.462 184.004 613.858 200.545 604.649 211.118C595.611 221.691 580.69 226.977 559.886 226.977C550.336 226.977 541.81 225.954 534.307 223.907C526.974 221.691 520.75 218.11 515.634 213.164C510.689 208.048 506.852 201.313 504.123 192.957C501.565 184.601 500.287 174.113 500.287 161.494V46.8999H521.006C525.098 46.8999 527.145 48.861 527.145 52.7831V164.308C527.145 170.447 527.571 175.989 528.424 180.935C529.447 185.88 531.152 190.143 533.539 193.724C535.927 197.135 539.167 199.778 543.259 201.654C547.523 203.359 552.98 204.212 559.63 204.212C566.11 204.212 571.396 203.359 575.489 201.654C579.582 199.778 582.822 197.135 585.209 193.724C587.597 190.314 589.217 186.136 590.069 181.19C591.092 176.245 591.604 170.532 591.604 164.052V46.8999H612.323C614.199 46.8999 615.648 47.4115 616.672 48.4347C617.865 49.4578 618.462 50.9073 618.462 52.7831V161.494ZM704.856 66.5958C700.933 66.5958 696.585 66.7664 691.81 67.1074C687.035 67.4485 683.113 67.8748 680.044 68.3864V202.677H704.344C711.677 202.677 718.071 201.909 723.528 200.375C728.985 198.669 733.504 195.344 737.085 190.399C740.666 185.453 743.31 178.462 745.015 169.424C746.72 160.215 747.573 148.108 747.573 133.102C747.573 119.8 746.805 108.887 745.271 100.36C743.906 91.6634 741.519 84.8423 738.108 79.897C734.868 74.7812 730.52 71.2854 725.063 69.4096C719.606 67.5337 712.87 66.5958 704.856 66.5958ZM659.325 224.163C655.232 224.163 653.186 222.202 653.186 218.28V49.9694C657.108 49.2873 661.286 48.6905 665.72 48.1789C670.324 47.4968 674.928 46.9852 679.532 46.6441C684.307 46.1326 688.911 45.7915 693.345 45.621C697.779 45.2799 701.957 45.1094 705.879 45.1094C717.986 45.1094 728.388 46.6441 737.085 49.7136C745.782 52.7831 752.944 57.8137 758.572 64.8053C764.199 71.7969 768.292 81.0054 770.85 92.4308C773.578 103.856 774.942 117.839 774.942 134.381C774.942 150.922 773.578 164.905 770.85 176.33C768.292 187.756 764.284 197.049 758.828 204.212C753.371 211.203 746.294 216.319 737.597 219.559C729.07 222.628 718.839 224.163 706.902 224.163H659.325ZM994.025 93.1981C994.025 76.998 998.63 64.8053 1007.84 56.62C1017.05 48.4347 1031.29 44.342 1050.56 44.342C1057.72 44.342 1064.88 44.8536 1072.04 45.8768C1079.2 46.7294 1084.75 47.8378 1088.67 49.202C1091.4 50.3957 1093.02 51.76 1093.53 53.2947C1094.21 54.6589 1094.55 56.2789 1094.55 58.1547V69.9211C1088.24 69.0685 1081.76 68.3864 1075.11 67.8748C1068.46 67.1927 1061.64 66.8516 1054.65 66.8516C1048 66.8516 1042.46 67.4485 1038.02 68.6422C1033.59 69.6653 1030.01 71.2001 1027.28 73.2464C1024.72 75.2928 1022.84 77.8507 1021.65 80.9202C1020.63 83.9896 1020.12 87.5707 1020.12 91.6634C1020.12 96.2676 1020.71 100.104 1021.91 103.174C1023.1 106.073 1025.06 108.631 1027.79 110.848C1030.69 113.065 1034.36 115.111 1038.79 116.987C1043.39 118.692 1049.02 120.738 1055.67 123.126C1062.49 125.684 1068.63 128.242 1074.09 130.799C1079.72 133.357 1084.49 136.597 1088.41 140.52C1092.51 144.271 1095.57 148.961 1097.62 154.588C1099.84 160.045 1100.95 167.037 1100.95 175.563C1100.95 193.98 1096 207.196 1086.11 215.211C1076.22 223.055 1061.9 226.977 1043.14 226.977C1034.95 226.977 1027.02 226.38 1019.35 225.186C1011.68 224.163 1005.71 222.884 1001.44 221.35C999.227 220.497 997.692 219.388 996.839 218.024C995.987 216.66 995.56 214.955 995.56 212.908V200.119C1001.53 200.971 1008.09 201.824 1015.26 202.677C1022.59 203.529 1030.35 203.956 1038.53 203.956C1045.7 203.956 1051.58 203.359 1056.18 202.165C1060.96 200.801 1064.62 199.01 1067.18 196.794C1069.91 194.406 1071.79 191.507 1072.81 188.097C1073.83 184.686 1074.34 180.849 1074.34 176.586C1074.34 171.811 1073.75 167.889 1072.55 164.82C1071.53 161.75 1069.65 159.192 1066.93 157.146C1064.2 154.929 1060.53 152.883 1055.93 151.007C1051.49 149.131 1045.87 147 1039.04 144.612C1031.88 142.054 1025.49 139.411 1019.86 136.683C1014.4 133.954 1009.71 130.714 1005.79 126.963C1002.04 123.04 999.141 118.436 997.095 113.15C995.049 107.693 994.025 101.042 994.025 93.1981Z" fill="white"/>
<path d="M831.104 224.163H811.409C807.316 224.163 805.27 222.202 805.27 218.28V93.9655H824.966C829.058 93.9655 831.104 95.9266 831.104 99.8487V224.163ZM818.315 73.5022C812.688 73.5022 808.595 72.479 806.037 70.4327C803.65 68.2159 802.456 64.5495 802.456 59.4337C802.456 54.4884 803.65 50.9073 806.037 48.6905C808.595 46.4736 812.688 45.3652 818.315 45.3652C823.772 45.3652 827.779 46.4736 830.337 48.6905C832.895 50.9073 834.174 54.4884 834.174 59.4337C834.174 64.5495 832.895 68.2159 830.337 70.4327C827.779 72.479 823.772 73.5022 818.315 73.5022Z" fill="#00A2FF"/>
<path d="M914.381 227.233C895.111 227.233 881.128 221.776 872.431 210.862C863.904 199.948 859.641 182.64 859.641 158.936C859.641 135.404 863.904 118.18 872.431 107.267C881.128 96.3529 895.111 90.896 914.381 90.896C933.65 90.896 947.548 96.3529 956.074 107.267C964.771 118.18 969.12 135.404 969.12 158.936C969.12 182.64 964.771 199.948 956.074 210.862C947.548 221.776 933.65 227.233 914.381 227.233ZM943.029 158.936C943.029 149.728 942.432 142.054 941.239 135.915C940.215 129.776 938.51 124.916 936.123 121.335C933.906 117.584 930.922 114.94 927.17 113.406C923.589 111.871 919.326 111.104 914.381 111.104C909.435 111.104 905.087 111.871 901.335 113.406C897.754 114.94 894.77 117.584 892.382 121.335C890.166 124.916 888.46 129.776 887.267 135.915C886.243 142.054 885.732 149.728 885.732 158.936C885.732 168.315 886.243 176.16 887.267 182.469C888.46 188.608 890.166 193.554 892.382 197.305C894.77 200.886 897.754 203.444 901.335 204.979C905.087 206.343 909.435 207.025 914.381 207.025C919.326 207.025 923.589 206.343 927.17 204.979C930.922 203.444 933.906 200.886 936.123 197.305C938.51 193.554 940.215 188.608 941.239 182.469C942.432 176.16 943.029 168.315 943.029 158.936Z" fill="#FF0000"/>
<path d="M99.2348 162.842C113.488 162.842 124.406 166.307 131.99 173.237C139.574 180.167 143.366 189.974 143.366 202.658C143.366 211.157 141.601 218.545 138.071 224.822C134.671 231.098 129.375 236.002 122.183 239.532C115.122 242.932 106.296 244.632 95.7042 244.632C82.4975 244.632 70.7944 241.952 60.5951 236.59L66.8716 222.861C75.8941 227.176 85.4396 229.333 95.5081 229.333C101.654 229.333 106.95 228.222 111.395 225.999C115.841 223.776 119.176 220.834 121.399 217.172C123.752 213.38 124.929 209.131 124.929 204.423C124.929 198.67 123.948 193.897 121.987 190.105C120.156 186.182 116.887 183.175 112.18 181.083C107.473 178.86 101 177.748 92.7621 177.748C84.9165 177.748 78.7054 178.467 74.1288 179.906L68.0484 173.825V115.179H139.051L137.09 130.282H85.8972V164.411C90.4738 163.365 94.9197 162.842 99.2348 162.842Z" fill="white"/>
<path d="M73.1713 19.2461L63.6079 19.2461L55.1072 19.2461L51.7069 19.2461L27.5579 72.3672L14.204 101.037L7.52702 115.372L1.18508e-06 130.942L1.48762 130.942L4.67541 130.942L21.2519 130.942L73.1713 19.2461Z" fill="white"/>
<path d="M8.34528 130.832L8.34528 115.221H164.907L162.357 130.432L8.34528 130.832Z" fill="white"/>
<path d="M66.5769 64.5385H86.5537V178.393H85.8514L81.8136 178.892L77.7757 179.556L74.5879 180.22L69.7 176.401L66.7247 174.076L66.5769 64.5385Z" fill="white"/>
<mask id="path-6-outside-1_11_22" maskUnits="userSpaceOnUse" x="196.457" y="-0.144547" width="18" height="266" fill="black">
<rect fill="white" x="196.457" y="-0.144547" width="18" height="266"/>
<path d="M211.276 2.86155V262.055H199.937V2.86155H211.276Z"/>
</mask>
<path d="M211.276 2.86155V262.055H199.937V2.86155H211.276Z" fill="white"/>
<path d="M211.276 2.86154H214.138V0H211.276V2.86154ZM211.276 262.055V264.917H214.138V262.055H211.276ZM199.937 262.055H197.075V264.917H199.937V262.055ZM199.937 2.86154V0H197.075V2.86154H199.937ZM211.276 2.86154H208.415V262.055H211.276H214.138V2.86154H211.276ZM211.276 262.055V259.193H199.937V262.055V264.917H211.276V262.055ZM199.937 262.055H202.798V2.86154H199.937H197.075V262.055H199.937ZM199.937 2.86154V5.72308H211.276V2.86154V0H199.937V2.86154Z" fill="black" mask="url(#path-6-outside-1_11_22)"/>
</svg>
